uphill_walking_calibrated_grf.mot
version=1
nRows=19
nColumns=37
inDegrees=yes
endheader
time	ground_force1_vx	ground_force1_vy	ground_force1_vz	ground_force1_px	ground_force1_py	ground_force1_pz	ground_torque1_x	ground_torque1_y	ground_torque1_z	ground_force2_vx	ground_force2_vy	ground_force2_vz	ground_force2_px	ground_force2_py	ground_force2_pz	ground_torque2_x	ground_torque2_y	ground_torque2_z	femur_assistance_force_vx	femur_assistance_force_vy	femur_assistance_force_vz	femur_assistance_force_px	femur_assistance_force_py	femur_assistance_force_pz	femur_assistance_torque_x	femur_assistance_torque_y	femur_assistance_torque_z	tibia_assistance_force_vx	tibia_assistance_force_vy	tibia_assistance_force_vz	tibia_assistance_force_px	tibia_assistance_force_py	tibia_assistance_force_pz	tibia_assistance_torque_x	tibia_assistance_torque_y	tibia_assistance_torque_z
     25.60000000	    286.14035000	    705.54260300	     24.76720800	      0.47049200	      0.00000000	     -0.64980000	     -0.00001700	      4.12235900	      0.00001700	     53.57086600	    130.74900800	     -0.57335200	      1.02189100	      0.00000000	     -0.48512400	      0.00000000	      0.50761700	     -0.00000100	      0.00000000	      0.00000000	      0.00000000	     -0.10000000	     -0.09600000	      0.00000000	      0.00000000	      0.00000000	      0.00000000	      0.00000000	     -0.00000000	      0.00000000	     -0.08000000	     -0.28169331	      0.00000000	      0.00000000	      0.00000000	      0.00000000
     25.60100000	    287.13217200	    702.94860800	     24.30944400	      0.46788700	      0.00000000	     -0.64928300	     -0.00000400	      4.03834600	      0.00001000	     57.69073900	    137.31028700	      0.95252700	      1.01395500	      0.00000000	     -0.46772100	      0.00000200	      4.00370400	      0.00001400	      0.00000000	      0.00000000	      0.00000000	     -0.10000000	     -0.09600000	      0.00000000	      0.00000000	      0.00000000	      0.00000000	      0.00000000	     -0.00000000	      0.00000000	     -0.08000000	     -0.28169331	      0.00000000	      0.00000000	      0.00000000	      0.00000000
     25.60200000	    287.81881700	    700.35461400	     24.38573800	      0.46543700	      0.00000000	     -0.64815300	      0.00003200	      4.28312200	     -0.00000700	     58.75885400	    141.27757300	      3.69910900	      1.00017000	      0.00000000	     -0.46279500	      0.00000700	      8.01764900	      0.00000200	      0.00000000	      0.00000000	      0.00000000	     -0.10000000	     -0.09600000	      0.00000000	      0.00000000	      0.00000000	      0.00000000	      0.00000000	     -0.00000000	      0.00000000	     -0.08000000	     -0.28169331	      0.00000000	      0.00000000	      0.00000000	      0.00000000
     25.60300000	    287.51364100	    699.28649900	     24.30944400	      0.46527500	      0.00000000	     -0.64821900	      0.00000400	      3.61051400	      0.00002100	     61.12396600	    144.17674300	      5.75904500	      0.98005800	      0.00000000	     -0.46576600	      0.00000200	     10.96160400	      0.00000000	      0.00000000	      0.00000000	      0.00000000	     -0.10000000	     -0.09600000	      0.00000000	      0.00000000	      0.00000000	      0.00000000	      0.00000000	     -0.00000000	      0.00000000	     -0.08000000	     -0.28169331	      0.00000000	      0.00000000	      0.00000000	      0.00000000
     25.60400000	    287.81881700	    698.37097200	     23.69909300	      0.46728300	      0.00000000	     -0.64821400	     -0.00002400	      3.50398300	      0.00000600	     66.61713400	    145.09227000	      5.37757500	      0.95957200	      0.00000000	     -0.48091500	      0.00000500	     11.23481600	      0.00000600	      0.00000000	      0.00000000	      0.00000000	     -0.10000000	     -0.09600000	      0.00000000	      0.00000000	      0.00000000	      0.00000000	      0.00000000	     -0.00000000	      0.00000000	     -0.08000000	     -0.28169331	      0.00000000	      0.00000000	      0.00000000	      0.00000000
     25.60500000	    288.58175700	    699.13391100	     22.63097800	      0.46904300	      0.00000000	     -0.64951300	     -0.00000600	      3.33716700	     -0.00000300	     74.17023500	    143.87156700	      3.31763800	      0.94310800	      0.00000000	     -0.50069200	      0.00000400	      9.08235100	      0.00001200	      0.00000000	      0.00000000	      0.00000000	     -0.10000000	     -0.09600000	      0.00000000	      0.00000000	      0.00000000	      0.00000000	      0.00000000	     -0.00000000	      0.00000000	     -0.08000000	     -0.28169331	      0.00000000	      0.00000000	      0.00000000	      0.00000000
     25.60600000	    289.42099000	    698.98132300	     21.63915600	      0.47106700	      0.00000000	     -0.64984700	      0.00002800	      2.83532700	      0.00001400	     80.96039600	    143.87156700	      1.48658300	      0.92529000	      0.00000000	     -0.51087400	      0.00000200	      6.36749000	      0.00000700	      0.00000000	      0.00000000	      0.00000000	     -0.10000000	     -0.09600000	      0.00000000	      0.00000000	      0.00000000	      0.00000000	      0.00000000	     -0.00000000	      0.00000000	     -0.08000000	     -0.28169331	      0.00000000	      0.00000000	      0.00000000	      0.00000000
     25.60700000	    289.72616600	    698.52356000	     19.73180800	      0.47067700	      0.00000000	     -0.65050100	      0.00002800	      2.16951200	      0.00002000	     84.85138700	    143.87156700	      1.86805200	      0.92189600	      0.00000000	     -0.51045000	      0.00000100	      4.67940700	      0.00000400	      0.00000000	      0.00000000	      0.00000000	     -0.10000000	     -0.09600000	      0.00000000	      0.00000000	      0.00000000	      0.00000000	      0.00000000	     -0.00000000	      0.00000000	     -0.08000000	     -0.28169331	      0.00000000	      0.00000000	      0.00000000	      0.00000000
     25.60800000	    289.80246000	    696.84509300	     17.44298900	      0.46830700	      0.00000000	     -0.65059800	      0.00001700	      1.52566800	      0.00002200	     86.22467800	    144.32933000	      4.69092800	      0.93165900	      0.00000000	     -0.49868100	      0.00000200	      4.60323400	      0.00000500	      0.00000000	      0.00000000	      0.00000000	     -0.10000000	     -0.09600000	      0.00000000	      0.00000000	      0.00000000	      0.00000000	      0.00000000	     -0.00000000	      0.00000000	     -0.08000000	     -0.28169331	      0.00000000	      0.00000000	      0.00000000	      0.00000000
     25.60900000	    288.88693200	    694.55627400	     15.68822700	      0.46721400	      0.00000000	     -0.65054800	      0.00000700	      0.60733100	      0.00001800	     87.29279300	    143.56639100	      7.51380400	      0.94766300	      0.00000000	     -0.49112800	      0.00000400	      4.17697400	      0.00000300	      0.00000000	      0.00000000	      0.00000000	     -0.10000000	     -0.09600000	      0.00000000	      0.00000000	      0.00000000	      0.00000000	      0.00000000	     -0.00000000	      0.00000000	     -0.08000000	     -0.28169331	      0.00000000	      0.00000000	      0.00000000	      0.00000000
     25.61000000	    287.66622900	    692.11486800	     14.08605400	      0.46551100	      0.00000000	     -0.65065900	      0.00000500	      0.34872900	      0.00002700	     90.11566900	    143.71897900	      8.88709400	      0.95769900	      0.00000000	     -0.49188100	      0.00000400	      1.75939300	      0.00000800	      0.00000000	      0.00000000	      0.00000000	     -0.10000000	     -0.09600000	      0.00000000	      0.00000000	      0.00000000	      0.00000000	      0.00000000	     -0.00000000	      0.00000000	     -0.08000000	     -0.28169331	      0.00000000	      0.00000000	      0.00000000	      0.00000000
     25.61100000	    286.36923200	    689.21569800	     13.70458400	      0.46552100	      0.00000000	     -0.65001600	      0.00000600	      0.10248400	      0.00002500	     94.99848200	    146.77073700	      8.42933000	      0.96523200	      0.00000000	     -0.49828700	      0.00000500	     -2.52403700	      0.00001000	      0.00000000	      0.00000000	      0.00000000	     -0.10000000	     -0.09600000	      0.00000000	      0.00000000	      0.00000000	      0.00000000	      0.00000000	     -0.00000000	      0.00000000	     -0.08000000	     -0.28169331	      0.00000000	      0.00000000	      0.00000000	      0.00000000
     25.61200000	    285.91146900	    687.84240700	     13.78087800	      0.46662700	      0.00000000	     -0.65041100	      0.00001700	      0.02937800	      0.00000400	    100.64423400	    155.62083400	      6.90345100	      0.96132600	      0.00000000	     -0.49897300	      0.00000000	     -6.28683000	      0.00000700	      0.00000000	      0.00000000	      0.00000000	     -0.10000000	     -0.09600000	      0.00000000	      0.00000000	      0.00000000	      0.00000000	      0.00000000	     -0.00000000	      0.00000000	     -0.08000000	     -0.28169331	      0.00000000	      0.00000000	      0.00000000	      0.00000000
     25.61300000	    285.83517500	    685.85876500	     13.78087800	      0.46566300	      0.00000000	     -0.65056800	      0.00001500	      0.02304400	      0.00001500	    103.61969800	    167.67527800	      6.14051200	      0.96501700	      0.00000000	     -0.49622600	      0.00000500	     -7.26435200	      0.00000800	      0.00000000	      0.00000000	      0.00000000	     -0.10000000	     -0.09600000	      0.00000000	      0.00000000	      0.00000000	      0.00000000	      0.00000000	     -0.00000000	      0.00000000	     -0.08000000	     -0.28169331	      0.00000000	      0.00000000	      0.00000000	      0.00000000
     25.61400000	    286.14035000	    682.50183100	     14.31493600	      0.46294600	      0.00000000	     -0.65005100	      0.00002300	      0.59227000	      0.00002700	    102.09381900	    181.40818800	      6.97974500	      0.96463700	      0.00000000	     -0.48591300	      0.00000800	     -4.24738900	      0.00000300	      0.00000000	      0.00000000	      0.00000000	     -0.10000000	     -0.09600000	      0.00000000	      0.00000000	      0.00000000	      0.00000000	      0.00000000	     -0.00000000	      0.00000000	     -0.08000000	     -0.28169331	      0.00000000	      0.00000000	      0.00000000	      0.00000000
     25.61500000	    286.29293800	    678.38195800	     14.92528700	      0.46071900	      0.00000000	     -0.64927200	      0.00003300	      1.73638200	      0.00001700	     97.05841800	    192.85228000	      7.97156700	      0.95739900	      0.00000000	     -0.47923300	      0.00000300	      0.14600900	      0.00000800	      0.00000000	      0.00000000	      0.00000000	     -0.10000000	     -0.09600000	      0.00000000	      0.00000000	      0.00000000	      0.00000000	      0.00000000	     -0.00000000	      0.00000000	     -0.08000000	     -0.28169331	      0.00000000	      0.00000000	      0.00000000	      0.00000000
     25.61600000	    285.45370500	    672.88879400	     14.84899300	      0.45849300	      0.00000000	     -0.64797500	      0.00003600	      2.26853700	     -0.00000200	     92.02301800	    199.41355900	      8.65821300	      0.95405700	      0.00000000	     -0.47876800	      0.00000300	      2.09549600	      0.00001500	      0.00000000	      0.00000000	      0.00000000	     -0.10000000	     -0.09600000	      0.00000000	      0.00000000	      0.00000000	      0.00000000	      0.00000000	     -0.00000000	      0.00000000	     -0.08000000	     -0.28169331	      0.00000000	      0.00000000	      0.00000000	      0.00000000
     25.61700000	    284.46188400	    667.85339400	     13.47570200	      0.45738100	      0.00000000	     -0.64771300	     -0.00000600	      1.72711100	      0.00000900	     89.81049300	    202.92308000	      7.74268600	      0.94357200	      0.00000000	     -0.47951100	      0.00000500	      1.11299500	     -0.00000100	      0.00000000	      0.00000000	      0.00000000	     -0.10000000	     -0.09600000	      0.00000000	      0.00000000	      0.00000000	      0.00000000	      0.00000000	     -0.00000000	      0.00000000	     -0.08000000	     -0.28169331	      0.00000000	      0.00000000	      0.00000000	      0.00000000
     25.61800000	    283.08859300	    664.95422400	     11.72094200	      0.45864000	      0.00000000	     -0.64877800	      0.00003300	     -0.02100900	      0.00001700	     90.26825700	    205.82225000	      3.01246100	      0.93324600	      0.00000000	     -0.48461900	      0.00000700	     -1.17665300	      0.00001300	      0.00000000	      0.00000000	      0.00000000	     -0.10000000	     -0.09600000	      0.00000000	      0.00000000	      0.00000000	      0.00000000	      0.00000000	     -0.00000000	      0.00000000	     -0.08000000	     -0.28169331	      0.00000000	      0.00000000	      0.00000000	      0.00000000
